0
SECTION
2
HEADER
9
$ACADVER
1
AC1015
0
ENDSEC
0
SECTION
2
TABLES
0
TABLE
2
LAYER
70
4
0
LAYER
2
0
70
0
62
7
6
CONTINUOUS
0
LAYER
2
OUTLINE
70
0
62
4
6
CONTINUOUS
0
LAYER
2
DIMENSIONS
70
0
62
1
6
CONTINUOUS
0
LAYER
2
CENTERLINE
70
0
62
2
6
CONTINUOUS
0
ENDTAB
0
ENDSEC
0
SECTION
2
ENTITIES
0
LINE
8
OUTLINE
10
-50.0
20
-50.0
30
0.0
11
50.0
21
-50.0
31
0.0
0
LINE
8
OUTLINE
10
50.0
20
-50.0
30
0.0
11
50.0
21
50.0
31
0.0
0
LINE
8
OUTLINE
10
50.0
20
50.0
30
0.0
11
-50.0
21
50.0
31
0.0
0
LINE
8
OUTLINE
10
-50.0
20
50.0
30
0.0
11
-50.0
21
-50.0
31
0.0
0
CIRCLE
8
OUTLINE
10
0.0
20
0.0
30
0.0
40
30.0
0
CIRCLE
8
CENTERLINE
10
0.0
20
0.0
30
0.0
40
40.0
0
LINE
8
CENTERLINE
10
-60.0
20
0.0
30
0.0
11
60.0
21
0.0
31
0.0
0
LINE
8
CENTERLINE
10
0.0
20
-60.0
30
0.0
11
0.0
21
60.0
31
0.0
0
ARC
8
DIMENSIONS
10
0.0
20
0.0
30
0.0
40
25.0
50
0.0
51
90.0
0
ENDSEC
0
EOF
